<?xml version="1.0" encoding="iso-8859-1"?>
<!-- Uploaded to: SVG Repo, www.svgrepo.com, Generator: SVG Repo Mixer Tools -->
<!DOCTYPE svg PUBLIC "-//W3C//DTD SVG 1.1//EN" "http://www.w3.org/Graphics/SVG/1.1/DTD/svg11.dtd">
<svg fill="#000000" version="1.1" id="Capa_1" xmlns="http://www.w3.org/2000/svg" xmlns:xlink="http://www.w3.org/1999/xlink" 
	 width="800px" height="800px" viewBox="0 0 80.036 80.036"
	 xml:space="preserve">
<g>
	<path d="M34.978,4.997C34.97,2.227,37.144,0.009,39.88,0c2.725-0.009,4.971,2.233,4.964,4.957
		c-0.005,2.752-2.199,4.932-4.964,4.934C37.158,9.893,34.987,7.726,34.978,4.997z M55.176,75.98c0.597,0.58,0.807,1.393,0.915,2.115
		c0.026,0.182,0.039,0.363,0.051,0.576l0.02,0.284c0.021,0.278-0.074,0.554-0.267,0.759c-0.189,0.205-0.457,0.321-0.736,0.321
		H24.838c-0.302,0-0.585-0.136-0.777-0.367c-0.19-0.231-0.267-0.536-0.209-0.833c0.035-0.179,0.063-0.352,0.092-0.52
		c0.064-0.401,0.133-0.817,0.278-1.234c0.149-0.425,0.354-0.779,0.618-1.062c-1.533-2.606-1.759-5.418-0.668-8.355
		c0.368-0.988,0.856-1.916,1.329-2.811c0.159-0.303,0.318-0.604,0.473-0.905c-0.358-0.358-0.549-0.845-0.537-1.418
		c0.02-1.167,0.868-2.027,2.123-2.231c3.654-5.93,5.703-12.756,6.238-20.833l-2.177,0.002c-1.334-0.002-2.631-1.115-2.89-2.48
		c-0.18-0.943,0.165-2.081,0.899-2.969c0.71-0.857,1.666-1.328,2.612-1.276c0.399,0.023,0.751,0.036,0.942,0.024
		c0.012-0.269-0.006-0.702-0.021-0.99c-0.19-4.16-1.448-7.822-3.735-10.889c-0.438-0.59-1.018-1.112-1.629-1.666
		c-0.19-0.174-0.38-0.345-0.567-0.52c-0.528-0.496-1.931-1.813-1.322-3.781c0.461-1.491,1.571-2.427,3.048-2.566
		c0.111-0.011,0.229-0.017,0.349-0.017c0.348,0,1.018,0.053,1.581,0.403c1.571,0.981,2.991,0.892,4.66-0.284
		c0.149-0.106,0.293-0.159,0.378-0.19c0.305-0.128,0.685-0.112,0.965,0.065l0.217,0.136c0.184,0.116,0.369,0.231,0.55,0.354
		c1.454,0.984,2.769,0.98,4.148-0.017c0.451-0.327,0.893-0.485,1.349-0.485c0.567,0,1.035,0.255,1.337,0.447
		c1.342,0.851,2.568,0.902,3.771,0.141c0.605-0.387,1.257-0.582,1.936-0.582c1.147,0,2.262,0.59,2.907,1.538
		c1.113,1.634,0.813,3.432-0.806,4.808c-3.949,3.36-5.84,7.853-5.928,14.104l0.515-0.001c0.315,0,0.632,0.001,0.948,0.006
		c1.502,0.023,2.781,0.989,3.259,2.461c0.466,1.434-0.038,2.864-1.313,3.733c-0.442,0.299-1.011,0.479-1.52,0.481l-2.613,0.002
		c0.28,3.217,0.727,6.876,1.7,10.48c1.012,3.733,2.733,7.18,4.479,10.358c0.544,0.063,1.175,0.271,1.581,0.724
		c0.468,0.521,0.708,1.367,0.585,2.059c-0.047,0.264-0.142,0.498-0.276,0.704c0.2,0.347,0.409,0.688,0.621,1.03
		c0.435,0.709,0.884,1.44,1.261,2.219C56.984,69.87,56.846,72.799,55.176,75.98z M29.947,60.229h19.555
		c-1.607-3.002-3.14-6.239-4.092-9.765c-1.131-4.176-1.571-8.375-1.854-11.932c-0.021-0.278,0.072-0.555,0.264-0.761
		c0.188-0.206,0.455-0.323,0.735-0.323l3.699-0.004c0.098,0,0.272-0.05,0.396-0.133c0.547-0.372,0.728-0.859,0.534-1.45
		c-0.212-0.652-0.738-1.063-1.379-1.072c-0.305-0.005-0.611-0.006-0.917-0.006l-1.438,0.003c-0.482,0-0.896-0.341-0.988-0.813
		l-0.038-0.187c-0.031-0.134-0.062-0.271-0.063-0.446c-0.021-7.083,2.15-12.383,6.641-16.201c1.069-0.911,0.801-1.625,0.446-2.145
		c-0.207-0.305-0.658-0.659-1.248-0.659c-0.29,0-0.579,0.089-0.857,0.267c-1.845,1.173-3.933,1.125-5.925-0.139
		c-0.172-0.11-0.249-0.131-0.266-0.134c-0.002,0.003-0.059,0.023-0.168,0.103c-2.047,1.481-4.311,1.503-6.452,0.053
		c-0.067-0.045-0.136-0.089-0.204-0.133c-2.188,1.384-4.396,1.41-6.505,0.094c-0.093-0.058-0.394-0.119-0.673-0.092
		c-0.426,0.041-1.022,0.205-1.318,1.16C27.683,16,27.76,16.438,28.61,17.236c0.178,0.165,0.359,0.33,0.54,0.495
		c0.656,0.595,1.334,1.207,1.892,1.954c2.53,3.395,3.923,7.43,4.133,11.997c0.052,1.138,0.09,1.959-0.474,2.55
		c-0.461,0.482-1.112,0.548-1.688,0.548c-0.244,0-0.534-0.012-0.877-0.031c-0.002,0-0.002,0-0.002,0
		c-0.323,0-0.666,0.206-0.951,0.551c-0.388,0.468-0.532,1.014-0.476,1.312c0.079,0.418,0.544,0.845,0.92,0.846l3.238-0.002
		c0.273,0,0.537,0.111,0.728,0.311c0.188,0.2,0.288,0.469,0.275,0.743C35.451,46.887,33.511,54.012,29.947,60.229z M52.594,76.359
		c-0.038-0.442,0.22-0.858,0.635-1.021c1.529-2.765,1.697-5.106,0.564-7.425c-0.338-0.691-0.742-1.352-1.17-2.05
		c-0.265-0.429-0.527-0.859-0.775-1.298c-0.033-0.057-0.052-0.075-0.053-0.075c-0.38-0.19-0.594-0.599-0.539-1.021
		c0.053-0.41,0.354-0.742,0.751-0.844c-0.015-0.096-0.057-0.217-0.098-0.268c-0.023-0.01-0.215-0.077-0.416-0.082
		c-0.809-0.02-1.612-0.025-2.42-0.025l-8.029,0.008h-5.169l-7.729,0.002c-0.116,0-0.679,0.014-0.7,0.291
		c0.037,0.016,0.099,0.033,0.193,0.049c0.43,0.069,0.766,0.41,0.83,0.84c0.064,0.433-0.154,0.855-0.543,1.051
		c-0.196,0.441-0.423,0.871-0.65,1.301c-0.464,0.877-0.899,1.706-1.221,2.571c-0.889,2.391-0.688,4.666,0.592,6.766
		c0.101,0.166,0.162,0.193,0.191,0.206c0.401,0.178,0.64,0.596,0.592,1.028c-0.048,0.437-0.373,0.79-0.802,0.875
		c-0.211,0.043-0.37,0.104-0.511,0.506c-0.029,0.088-0.057,0.183-0.079,0.282h27.996c-0.149-0.666-0.363-0.711-0.644-0.768
		C52.957,77.169,52.63,76.803,52.594,76.359z M46.335,56.917c-1.917-2.556-3.046-11.733-3.319-15.056
		c-0.045-0.555-0.521-0.959-1.084-0.92c-0.554,0.047-0.965,0.531-0.92,1.084c0.106,1.281,1.105,12.615,3.716,16.098
		c0.197,0.264,0.499,0.402,0.805,0.402c0.211,0,0.421-0.065,0.602-0.202C46.579,57.991,46.668,57.361,46.335,56.917z M30.495,65.383
		c-0.467-0.3-1.089-0.162-1.387,0.307c-0.107,0.17-2.625,4.205-0.726,8.099c0.174,0.356,0.533,0.563,0.904,0.563
		c0.147,0,0.299-0.031,0.439-0.101c0.499-0.243,0.706-0.846,0.464-1.345c-1.402-2.873,0.595-6.107,0.615-6.141
		C31.102,66.299,30.962,65.68,30.495,65.383z"/>
</g>
</svg>